<?xml version="1.0" encoding="utf-8"?>
<!-- Generator: Adobe Illustrator 26.4.1, SVG Export Plug-In . SVG Version: 6.00 Build 0)  -->
<svg version="1.1" id="logo" xmlns="http://www.w3.org/2000/svg" xmlns:xlink="http://www.w3.org/1999/xlink" x="0px" y="0px"
	 viewBox="0 0 174.2 60" style="enable-background:new 0 0 174.2 60;" xml:space="preserve">
<g>
	<g id="text">
		<path d="M29.54,18.57h-7.46v-0.03H11.08h-0.46H8.56c-0.8,0-1.45,0.65-1.45,1.45c0,0.8,0.65,1.45,1.45,1.45h2.07h0.46h4.04
			c0.8,0,1.45,0.65,1.45,1.45c0,0.8-0.65,1.45-1.45,1.45h-3.33h-1.47H10.3c-0.8,0-1.45,0.65-1.45,1.45v0.01
			c0,0.8,0.65,1.45,1.45,1.45h1.48c0.02,0,0.04-0.01,0.06-0.01h2.07c0.8,0,1.45,0.65,1.45,1.45c0,0.8-0.65,1.45-1.45,1.45h-1.36
			c-0.01,0-0.02-0.01-0.03-0.01H4.55c-0.8,0-1.45,0.65-1.45,1.45v0.01c0,0.8,0.65,1.45,1.45,1.45h6.1c0.79,0.02,1.42,0.65,1.42,1.44
			c0,0.78-0.62,1.41-1.4,1.44H8.72c-0.8,0-1.45,0.65-1.45,1.45v0.01c0,0.8,0.65,1.45,1.45,1.45h5.46c0.8,0,1.44,0.65,1.44,1.45
			c0,0.77-0.61,1.39-1.37,1.43H1.45c-0.8,0-1.45,0.65-1.45,1.45v0.01c0,0.8,0.65,1.45,1.45,1.45h14.61c-0.01,0-0.01,0-0.02,0h6.03
			v-6.31h7.46c3.28,0,5.85-0.41,7.71-1.24c1.87-0.82,3.17-1.97,3.91-3.45c0.74-1.47,1.11-3.26,1.11-5.36c0-3.06-0.93-5.43-2.8-7.12
			C37.61,19.41,34.3,18.57,29.54,18.57z M33.57,30.27c-0.39,0.41-1.09,0.69-2.08,0.84c-0.99,0.15-2.48,0.23-4.47,0.23h-4.95v-5.67
			h4.95c2.03,0,3.55,0.07,4.54,0.22c0.99,0.14,1.67,0.41,2.05,0.81c0.37,0.39,0.56,0.99,0.56,1.78
			C34.16,29.26,33.97,29.86,33.57,30.27z"/>
		<path d="M152.53,27.72c-0.26-0.06-0.53-0.1-0.82-0.1c-1.96,0-3.54,1.58-3.54,3.54s1.58,3.54,3.54,3.54c1.96,0,3.54-1.58,3.54-3.54
			c0-0.28-0.04-0.55-0.1-0.81l11.48-14.11L152.53,27.72z M152.61,33.48c-1.35,0.37-2.75-0.42-3.12-1.77
			c-0.29-1.07,0.15-2.16,1.01-2.76c-0.4,0.59-0.56,1.35-0.35,2.09c0.37,1.35,1.77,2.15,3.12,1.77c0.28-0.08,0.54-0.21,0.76-0.37
			C153.7,32.94,153.22,33.32,152.61,33.48z"/>
		<path d="M53.47,27.13l-1.08-5.31c-1.53,0.07-2.74,0.11-3.62,0.11c-0.84,0-2.05-0.03-3.62-0.11c0.19,3.49,0.29,6.77,0.29,9.83
			c0,3.06-0.1,6.32-0.29,9.76h8.57c-0.1-2.08-0.14-3.97-0.14-5.67l0.04-2.37v0.04c0-1.36,0.32-2.45,0.97-3.27
			c0.65-0.81,1.65-1.22,3.01-1.22c1.1,0,2.51,0.32,4.23,0.97l1.15-8.04c-0.65-0.09-1.32-0.14-2.01-0.14
			C56.97,21.71,54.47,23.52,53.47,27.13z"/>
		<path d="M84.44,22.25c-1.96-0.95-4.39-1.42-7.29-1.42c-4.32,0-7.5,0.99-9.53,2.96c-2.03,1.97-3.05,4.53-3.05,7.69
			c0,3.23,1.02,5.84,3.05,7.82c2.03,1.98,5.21,2.97,9.53,2.97c4.37,0,7.64-0.99,9.79-2.96c2.16-1.97,3.24-4.59,3.24-7.84
			c0-2-0.47-3.8-1.4-5.4C87.85,24.48,86.4,23.2,84.44,22.25z M81.44,35.06c-0.91,0.88-2.29,1.33-4.15,1.33
			c-1.85,0-3.21-0.44-4.06-1.33c-0.85-0.88-1.28-2.07-1.28-3.55c0-1.42,0.43-2.58,1.28-3.46c0.86-0.88,2.21-1.33,4.06-1.33
			c1.85,0,3.23,0.45,4.15,1.35c0.91,0.9,1.37,2.05,1.37,3.44C82.81,33,82.35,34.18,81.44,35.06z"/>
		<path d="M130.42,19.61h-9.76c-0.17,1.1-0.68,2.05-1.54,2.83c-0.86,0.79-1.91,1.18-3.16,1.18v6.35c1.22-0.1,2.39-0.17,3.52-0.22
			l-0.04,6.06c0,2.42,0.58,4.3,1.74,5.65c1.16,1.35,3.14,2.03,5.94,2.03c1.15,0,2.08-0.02,2.8-0.07c0.72-0.05,1.6-0.17,2.65-0.36
			c-0.05-1.53-0.07-2.51-0.07-2.94c0-0.91,0.05-1.81,0.14-2.69c-0.5,0.1-1.03,0.14-1.58,0.14c-1.43,0-2.43-0.36-3-1.09
			c-0.56-0.73-0.84-1.74-0.84-3.03l0.03-3.8c1.82,0.07,3.83,0.18,6.03,0.32v-6.35h-6.92C127.85,22.63,129.2,21.29,130.42,19.61z"/>
		<path d="M165.99,24.3c-0.61-1.05-1.43-1.97-2.39-2.79l-3.45,4.25c1.08,1.48,1.65,3.24,1.65,5.31c0,2.75-0.85,4.95-2.54,6.59
			c-1.7,1.64-4.26,2.46-7.7,2.46c-3.44,0-5.95-0.82-7.54-2.46c-1.59-1.64-2.38-3.84-2.38-6.59c0-2.65,0.79-4.79,2.38-6.43
			c1.59-1.64,4.1-2.46,7.54-2.46c2.02,0,3.71,0.31,5.12,0.88l4.17-3.4c-0.1-0.06-0.19-0.12-0.3-0.17c-2.45-1.19-5.5-1.78-9.13-1.78
			c-5.41,0-9.39,1.23-11.93,3.7c-2.55,2.47-3.82,4.53-3.82,8.48c0,4.05,1.27,8.46,3.82,10.94c2.54,2.48,6.52,3.72,11.93,3.72
			c5.47,0,9.56-1.23,12.26-3.7c2.7-2.47,4.06-5.74,4.06-9.82C167.75,28.56,167.16,26.3,165.99,24.3z"/>
		<path d="M112.67,30.52c-1.36-0.84-3.29-1.26-5.78-1.26c-0.86,0-2.16,0.06-3.91,0.18c-0.72,0.07-1.28,0.11-1.69,0.11
			c-0.41,0-0.74-0.09-0.99-0.29c-0.25-0.19-0.38-0.45-0.38-0.79c0-0.43,0.3-0.81,0.9-1.15c0.6-0.33,1.32-0.5,2.15-0.5
			c1.2,0,2.39,0.15,3.57,0.45c1.18,0.3,2.46,0.81,3.82,1.52l4.13-4.16c-1.48-1.08-3.19-1.88-5.11-2.42
			c-1.93-0.54-3.83-0.81-5.72-0.81c-3.85,0-6.77,0.58-8.75,1.74c-1.99,1.16-2.98,2.79-2.98,4.9c0,1.82,0.66,3.13,1.99,3.93
			c1.33,0.8,3.06,1.2,5.19,1.2c1.31,0,2.59-0.07,3.84-0.22c0.24-0.02,0.56-0.05,0.95-0.07c0.4-0.02,0.75-0.04,1.06-0.04
			c0.5,0,0.9,0.11,1.18,0.32c0.29,0.21,0.43,0.51,0.43,0.9c0,0.48-0.29,0.87-0.88,1.17c-0.59,0.3-1.42,0.45-2.49,0.45
			c-1.12,0-2.46-0.22-4.02-0.66c-1.56-0.44-2.88-1.06-3.98-1.85l-3.77,5.13c1.82,1.15,3.76,2,5.83,2.56
			c2.07,0.56,4.11,0.84,6.12,0.84c3.54,0,6.31-0.58,8.32-1.74c2.01-1.16,3.01-3.03,3.01-5.61
			C114.71,32.63,114.03,31.36,112.67,30.52z"/>
	</g>
	<path id="sppedometer" d="M147.14,16.76c6.3-1.8,12.38-1.82,17.19,0.12l-2.29,1.87C157.99,16.66,152.61,16.11,147.14,16.76z
		 M174.13,30.38c-0.74-6.01-3.58-10.1-7.64-12.47l-1.97,2.43c2.91,2.36,4.65,5.9,4.47,10.81L174.13,30.38z"/>
</g>
</svg>
