<svg xmlns="http://www.w3.org/2000/svg" aria-hidden="true" style="position:absolute;width:0;height:0;overflow:hidden">
  <defs>
    <symbol id="bullet" viewBox="0 0 32 32">
      <path d="M32 16c0 8.837-7.163 16-16 16s-16-7.163-16-16c0-8.837 7.163-16 16-16s16 7.163 16 16z"></path>
      <path fill="none" stroke="#fafafa" style="stroke: var(--color1, #fafafa)" stroke-linejoin="miter" stroke-linecap="round" stroke-miterlimit="4" stroke-width="2.1333" d="M10.133 15.733l3.512 3.512c0.417 0.417 1.092 0.417 1.508 0l6.979-6.979"></path>
    </symbol>
    <symbol id="icon-bullet" viewBox="0 0 32 32">
      <path d="M32 16c0 8.837-7.163 16-16 16S0 24.837 0 16 7.163 0 16 0s16 7.163 16 16z"/>
      <path stroke-linecap="round" stroke-width="2.133" d="m10.133 15.733 3.512 3.512a1.065 1.065 0 0 0 1.508 0l6.979-6.979"/>
    </symbol>
    <symbol id="icon-arrow-left" viewBox="0 0 34 32">
      <path stroke-linecap="round" stroke-linejoin="round" stroke-width="4.267" d="M2.133 18.133H22.4m0 0-6.4-6.4m6.4 6.4-6.4 6.4"/>
    </symbol>
    <symbol id="icon-burger" viewBox="0 0 32 32">
      <path stroke-linecap="round" stroke-linejoin="round" stroke-width="2.667" d="M29.333 7.333H2.666M29.333 14H2.666M29.333 20.667h-20"/>
    </symbol>
    <symbol id="icon-chevron-left" viewBox="0 0 32 32">
      <path stroke-linecap="round" stroke-linejoin="round" stroke-width="4" d="m12 8 8 8-8 8"/>
    </symbol>
    <symbol id="icon-crush" viewBox="0 0 42 32">
      <path d="M5.66 21.596h15.686a.63.63 0 0 0 .508-1l-2.163-2.994a2.58 2.58 0 0 0-2.091-1.05H8.822a2.888 2.888 0 0 0-2.618 1.632l-1.117 2.525c-.086.195-.068.421.047.6s.313.287.526.287zm7.844-3.783H17.6c.423-.005.823.192 1.076.53l1.44 1.992h-6.612v-2.522zm-6.16.898a1.622 1.622 0 0 1 1.478-.898h3.427v2.522H6.626l.718-1.624zM26.679 29.162a2.826 2.826 0 0 0-2.832-2.81 2.825 2.825 0 0 0-2.814 2.828 2.822 2.822 0 0 0 4.823 1.985c.53-.532.826-1.252.825-2.003zm-4.392 0a1.57 1.57 0 0 1 2.681-1.099 1.57 1.57 0 0 1-1.111 2.676 1.574 1.574 0 0 1-1.568-1.577z"/>
      <path d="m3.503 29.695 1.222.003a.629.629 0 0 0 .627-.618 4.073 4.073 0 0 1 8.147.03.629.629 0 0 0 .625.623l5.028.019a.629.629 0 0 0 .627-.625 4.072 4.072 0 0 1 4.092-4.064 4.076 4.076 0 0 1 4.062 4.095.629.629 0 0 0 .625.63l1.822.006c.612.001 1.2-.239 1.635-.668a2.1 2.1 0 0 0 .624-1.492v-1.116a.63.63 0 0 0-.564-.627l-.736-.075-.499-.409.087-.097a.635.635 0 0 0 .16-.421v-.914l.699-1.065a.634.634 0 0 0-.052-.764 3.957 3.957 0 0 0-2.987-1.327h-2.526a1.362 1.362 0 0 1-1.107-.538l-3.031-4.136a5.292 5.292 0 0 0-4.27-2.114H8.887a5.558 5.558 0 0 0-5.053 3.114l-2.089 4.666a12.52 12.52 0 0 0-1.11 5.159 2.801 2.801 0 0 0 2.863 2.727zm-.609-7.367 2.085-4.656a4.288 4.288 0 0 1 3.913-2.381h8.926a4.033 4.033 0 0 1 3.259 1.6l3.03 4.136a2.62 2.62 0 0 0 2.118 1.052h2.526a2.753 2.753 0 0 1 1.703.575l-.514.783a.63.63 0 0 0-.104.347v.862l-.366.41a.633.633 0 0 0 .07.91l1.154.946a.63.63 0 0 0 .333.139l.359.037v.547a.847.847 0 0 1-.255.598c-.2.195-.469.303-.749.3h-.004l-1.225-.004a5.329 5.329 0 0 0-10.584-.039l-3.856-.015a5.325 5.325 0 0 0-10.566-.038l-.641-.002a1.625 1.625 0 0 1-1.447-.835h.465a1.574 1.574 0 0 0 1.568-1.577v-1.037a1.574 1.574 0 0 0-1.568-1.577h-.049c.122-.367.262-.728.421-1.081zm-.761 2.342h.39a.315.315 0 0 1 .314.315v1.037c0 .174-.14.315-.314.315h-.609c.031-.561.105-1.118.22-1.668z"/>
      <path d="M12.249 29.162a2.826 2.826 0 0 0-2.832-2.81 2.825 2.825 0 0 0-2.814 2.828 2.822 2.822 0 0 0 4.823 1.985c.53-.532.826-1.252.825-2.003zm-4.393 0a1.57 1.57 0 0 1 2.681-1.099 1.57 1.57 0 0 1-1.111 2.676 1.574 1.574 0 0 1-1.568-1.577zM29.783 19.599a.623.623 0 0 0 .87-.175.634.634 0 0 0-.174-.875l-1.882-1.261a.624.624 0 0 0-.871.175.633.633 0 0 0 .174.874l1.882 1.261zM32.013 18.759a.63.63 0 0 0 .595-.83l-.628-1.892a.632.632 0 0 0-.796-.398.627.627 0 0 0-.395.798l.627 1.892a.628.628 0 0 0 .595.431z"/>
      <path d="M40.17 30.424h-1.229c.398-10.276-2.16-18.194-2.972-20.424 1.356.364 2.662.895 3.887 1.58.233.135.526.106.728-.073s.269-.466.165-.716C39.708 8.28 38.04 7.162 36.873 6.67a20.11 20.11 0 0 1 3.571-2.321.631.631 0 0 0-.133-1.181c-3.574-.834-5.464.4-6.385 1.23-1.369-1.511-1.924-3.883-1.93-3.909a.63.63 0 0 0-.598-.49.637.637 0 0 0-.619.462c-.555 2.019-.645 3.693-.273 4.92-1.936.171-3.698 1.19-5.249 3.038-.175.21-.197.508-.053.74s.42.344.684.278a18.755 18.755 0 0 1 4.416-.5c-.623 1.103-1.11 2.858-.47 5.402a.63.63 0 0 0 .608.476.627.627 0 0 0 .581-.394 15.37 15.37 0 0 1 1.753-3.076c.595 3.688.846 7.423.75 11.157a.633.633 0 0 0 .168.445l.68.732-.398.7a.635.635 0 0 0 .088.746l.506.538-.021.319-.877.338a.63.63 0 0 0-.4.53 60.581 60.581 0 0 1-.447 3.572h-2.068a.632.632 0 0 0 0 1.262h9.412a.632.632 0 0 0 0-1.262zm-9.379-18.338a4.658 4.658 0 0 1 1.125-3.246.63.63 0 0 0-.362-1.049 10.161 10.161 0 0 0-1.634-.12c-.752.005-1.504.058-2.249.16a5.57 5.57 0 0 1 3.77-1.204.624.624 0 0 0 .583-.318.635.635 0 0 0-.027-.666c-.252-.372-.563-1.147-.431-2.631a8.238 8.238 0 0 0 1.949 2.741.625.625 0 0 0 .855-.033l.039-.04c.505-.511 1.552-1.575 3.816-1.528a15.957 15.957 0 0 0-3.022 2.356.632.632 0 0 0 .335 1.057 5.257 5.257 0 0 1 3.074 2c-1.275-.542-2.989-1.108-4.474-1.026a.623.623 0 0 0-.284.086c-1.314.778-2.368 2.255-3.063 3.458zm6.894 18.338h-3.59c.156-1.028.289-2.056.39-3.063l.89-.343a.63.63 0 0 0 .402-.547l.066-.996a.632.632 0 0 0-.17-.475l-.374-.398.396-.697a.635.635 0 0 0-.086-.743l-.821-.884c.1-4.054-.215-8.107-.938-12.096.161-.14.331-.269.51-.385.064-.001.13 0 .196.002.006.019.006.039.014.058.037.089 3.574 8.903 3.115 20.568z"/>
    </symbol>
    <symbol id="icon-hand" viewBox="0 0 39 32">
      <path d="m38.684 24.922-4.844-4.843a6.871 6.871 0 0 0-1.002-4.096l-.356-1.06-.013-.034-1.597-4.009c-.199-.5-.58-.892-1.074-1.104s-1.041-.22-1.541-.021c-.499.199-.892.58-1.104 1.074a1.998 1.998 0 0 0-.03 1.517l.025.078-3.997-3.996a2.016 2.016 0 0 0-2.847 0l-.009.009-3.171-1.262-.034-.012-1.06-.356a6.874 6.874 0 0 0-4.097-1.001L6.779.652a.662.662 0 1 0-.937.937l5.374 5.373a.662.662 0 0 0 .545.189 5.571 5.571 0 0 1 3.631.818.67.67 0 0 0 .143.068l1.116.375 3.994 1.59a.684.684 0 0 1 .385.894.685.685 0 0 1-.893.384.352.352 0 0 0-.042-.015l-2.709-.872a.662.662 0 0 0-.671 1.098l5.937 5.936a.684.684 0 0 1 .001.972.69.69 0 0 1-.967.007l-4.27-4.269a.662.662 0 1 0-.937.937l4.264 4.263.011.011 1.033 1.033a.69.69 0 0 1-.973.973l-.787-.786-.002-.002-4.572-4.571a.662.662 0 1 0-.937.937l4.572 4.572a.684.684 0 0 1 0 .972.685.685 0 0 1-.974 0l-4.572-4.571a.662.662 0 1 0-.937.937l2.675 2.674a.684.684 0 0 1 0 .972.684.684 0 0 1-.973 0l-5.841-5.84a5.587 5.587 0 0 1-1.623-4.315.665.665 0 0 0-.193-.512l-5.522-5.52a.662.662 0 1 0-.937.937l5.315 5.314a6.913 6.913 0 0 0 2.021 5.033l5.841 5.84c.38.38.886.59 1.424.59s1.043-.209 1.423-.589a2.02 2.02 0 0 0 .402-.571l.559.559c.38.38.886.59 1.423.59a1.997 1.997 0 0 0 1.819-1.155l1.638 1.638a6.915 6.915 0 0 0 5.034 2.021l5.005 5.004a.661.661 0 1 0 .936-.936l-5.21-5.209a.659.659 0 0 0-.511-.192 5.586 5.586 0 0 1-4.316-1.622l-.853-.853a2.016 2.016 0 0 0 .836-2.939c.225-.099.432-.24.611-.419.38-.38.59-.885.59-1.423a2 2 0 0 0-.59-1.423L19.591 12.5l.077.025a2 2 0 0 0 1.738-.143l3.161 3.161a.662.662 0 1 0 .937-.937l-3.237-3.236a2.005 2.005 0 0 0-.511-2.2c.166.007.33.073.457.2l5.553 5.552c-.841 1.414-1.559 4 .368 6.213a.662.662 0 0 0 .999-.87 3.91 3.91 0 0 1-.503-.726c-.677-1.269-.372-2.544-.009-3.373.235-.537.494-.888.524-.927a.55.55 0 0 0 .044-.067l.008-.014a.723.723 0 0 0 .042-.089v-.001a.653.653 0 0 0 .027-.096l.003-.015a.613.613 0 0 0 .01-.095v-.017a.637.637 0 0 0-.006-.098l-.001-.008a.664.664 0 0 0-.023-.098l-.001-.006-.873-2.708a.352.352 0 0 0-.015-.042.69.69 0 0 1 1.279-.509l1.59 3.992.375 1.116c.017.05.039.098.068.143a5.56 5.56 0 0 1 .819 3.63.661.661 0 0 0 .19.545l5.064 5.063a.662.662 0 1 0 .937-.936v-.001zM9.738 23.706a.662.662 0 0 0-.931.101l-2.273 2.828a.662.662 0 0 0 1.032.83l2.273-2.828a.662.662 0 0 0-.101-.931zM4.815 18.833l-2.479.409a.662.662 0 1 0 .215 1.307l2.479-.408a.662.662 0 1 0-.215-1.307zM15.132 27.122a.662.662 0 1 0-1.323.071l.135 2.508a.663.663 0 0 0 .661.627l.036-.001a.663.663 0 0 0 .626-.697l-.135-2.508zM21.016 5.484a.666.666 0 0 0 .89-.293l1.637-3.237a.663.663 0 0 0-1.182-.598l-1.637 3.237a.663.663 0 0 0 .292.89z"/>
      <path d="M26.602 9.276a.66.66 0 0 0 .241-.046l2.341-.914a.662.662 0 1 0-.482-1.234l-2.341.913a.662.662 0 0 0 .241 1.28zM15.03 3.26a.661.661 0 1 0 1.279-.345L15.657.489a.663.663 0 0 0-1.279.344l.652 2.426z"/>
    </symbol>
    <symbol id="icon-machine" viewBox="0 0 42 32">
      <path d="M11.28 21.241c-1.081 0-1.96.879-1.96 1.96s.879 1.96 1.96 1.96 1.96-.879 1.96-1.96-.879-1.96-1.96-1.96zm0 2.8a.841.841 0 0 1 0-1.68.841.841 0 0 1 0 1.68zM30.88 21.241c-1.081 0-1.96.879-1.96 1.96s.879 1.96 1.96 1.96 1.96-.879 1.96-1.96-.879-1.96-1.96-1.96zm0 2.8a.841.841 0 0 1 0-1.68.841.841 0 0 1 0 1.68z"/>
      <path d="M37.899 4.976a2.8 2.8 0 0 0-1.978-.816H11.84a2.955 2.955 0 0 0-2.773 1.956l-2.139 5.985-2.028.581a2.766 2.766 0 0 0-1.464 1.003 2.815 2.815 0 0 0-.557 1.676v7.84c0 .926.754 1.68 1.68 1.68H7.14c.68 1.687 2.286 2.8 4.14 2.8s3.461-1.115 4.14-2.8h11.321c.68 1.687 2.286 2.8 4.139 2.8s3.461-1.115 4.139-2.8h2.02c.926 0 1.68-.754 1.68-1.68V6.961a2.81 2.81 0 0 0-.822-1.984zM9.555 8.08h5.085V12H8.155l1.4-3.92zM18.56 12h-2.8V8.08h2.8V12zM5.68 15.92v1.301L4 17.893V15.92h1.68zm5.6 10.64a3.337 3.337 0 0 1-3.221-2.402 3.363 3.363 0 0 1 3.221-4.318 3.363 3.363 0 0 1 3.22 4.321 3.338 3.338 0 0 1-3.221 2.4zm22.821-2.399c-.427 1.435-1.722 2.4-3.221 2.4s-2.794-.964-3.221-2.4v-.002a3.363 3.363 0 0 1 3.221-4.318 3.363 3.363 0 0 1 3.22 4.32h-.001zm2.939-.401h-1.72c.023-.185.04-.371.04-.56 0-2.47-2.01-4.48-4.48-4.48s-4.48 2.01-4.48 4.48c0 .189.017.375.04.56H15.719c.023-.185.04-.371.04-.56a4.483 4.483 0 0 0-3.92-4.441V15.92a.56.56 0 1 0-1.12 0v2.839a4.483 4.483 0 0 0-3.92 4.441c0 .189.017.375.04.56h-2.28a.56.56 0 0 1-.56-.56v-4.101l2.448-.98a.56.56 0 0 0 .352-.52v-2.24a.56.56 0 0 0-.56-.56h-2.14c.056-.157.133-.308.234-.445.222-.292.524-.497.873-.596l2.232-.639h11.121v7.28a.56.56 0 1 0 1.12 0V7.519a.56.56 0 0 0-.56-.56H9.954l.166-.466a1.833 1.833 0 0 1 1.718-1.214h24.081c.445 0 .868.175 1.186.488.318.323.494.747.494 1.192v7.84h-2.24a.56.56 0 0 0-.56.56v2.8c0 .31.251.56.56.56h2.24v4.48c0 .309-.252.56-.56.56zm.56-7.84v1.68h-1.68v-1.68h1.68z"/>
      <path d="M16.32 14.8H15.2a.56.56 0 1 0 0 1.12h1.12a.56.56 0 1 0 0-1.12z"/>
    </symbol>
    <symbol id="icon-house" viewBox="0 0 32 32">
      <path d="M15.965 3.502a.966.966 0 0 0-.577.24L2.303 15.59c-.374.338-.408.987-.071 1.363s.983.408 1.355.068L16.015 5.754l12.398 11.267c.372.339 1.018.306 1.355-.069s.302-1.024-.071-1.362L16.662 3.742a.962.962 0 0 0-.697-.24zm9.582 11.347v9.927c-.086.44-.261.835-.517 1.101-.328.331-.756.52-1.075.52h-4.458c-.001-1.991.004-4.149.01-6.084 0-.503-.455-.961-.955-.961h-5.114c-.5 0-.955.458-.955.961.01 1.93.006 4.081 0 6.084H8.065c-.333-.015-.786-.226-1.114-.55s-.509-.726-.507-1.031v-9.947l-1.91 1.721v8.215c.095.939.524 1.845 1.085 2.411.624.616 1.44 1.058 2.358 1.101h5.463c.5 0 .955-.458.955-.961.008-1.935.007-4.084 0-6.084h3.204c-.006 2.002-.014 4.169-.01 6.084 0 .503.455.961.955.961h5.413c.956 0 1.799-.458 2.428-1.091s1.072-1.48 1.075-2.442v-8.195l-1.91-1.741z"/>
    </symbol>
    <symbol id="icon-key" viewBox="0 0 42 32">
      <path d="M33.722 18.793a54.202 54.202 0 0 0-4.623-8.637 3.968 3.968 0 0 0-1.312-1.223c.066-.359.102-.723.106-1.089a6.14 6.14 0 1 0-12.282-.206 3.939 3.939 0 0 0-2.792 1.546 17.838 17.838 0 0 0-2.272 4.159 3.91 3.91 0 0 0 1.183 4.516l-3.539 5.667a.55.55 0 0 0-.045.095 8.286 8.286 0 0 0 .145 5.868 1.424 1.424 0 0 0 1.63.877 9.151 9.151 0 0 0 2.792-1.117.559.559 0 0 0 .24-.637l-.374-1.234 2.094-.972a.562.562 0 0 0 .257-.771l-.631-1.212 1.937-.558a.56.56 0 0 0 .341-.302l1.116-2.479c.386.128.789.194 1.195.195a3.907 3.907 0 0 0 3.227-1.719c.251-.363.48-.72.698-1.077-.002.28.059.557.178.81a1.713 1.713 0 0 0 1.497 1.027c.193.001.383-.041.558-.123a1.589 1.589 0 0 0 .603-2.155 1.834 1.834 0 0 0-.843-.876 1.367 1.367 0 0 0-1.206-.028.28.28 0 0 0-.061.034c.292-.58.551-1.177.776-1.787l.837-.385c1.329-.62 1.675-1.675 1.323-2.462-.469-1.022-1.63-1.418-2.909-1.055-.262-.318-.558-.614-.821-.899a31.34 31.34 0 0 1 2.094-.865 2.793 2.793 0 0 1 3.35 1.077 52.966 52.966 0 0 1 4.511 8.436 2.79 2.79 0 0 1-.899 3.322 15.586 15.586 0 0 1-6.197 2.864 2.79 2.79 0 0 1-3.11-1.468 63.722 63.722 0 0 1-1.072-2.278.559.559 0 0 0-1.022.452c.34.77.709 1.552 1.117 2.323a3.904 3.904 0 0 0 3.495 2.154 4.39 4.39 0 0 0 .848-.089 16.753 16.753 0 0 0 6.644-3.076 3.907 3.907 0 0 0 1.217-4.644zm-9.647-.669a.237.237 0 0 1 .084 0 .307.307 0 0 1 .156.045.725.725 0 0 1 .324.346c.14.296.078.597-.073.67s-.419-.073-.558-.374c-.14-.301-.078-.614.067-.687zm-7.258-6.142a.752.752 0 0 1 .179-.229 6.14 6.14 0 0 0 2.696 1.887.503.503 0 0 1-.251.112 1.544 1.544 0 0 1-.921-.223l-.983-.53a1.588 1.588 0 0 1-.703-.642.411.411 0 0 1-.006-.38l-.011.006zm-1.155 10.875-2.339.731a.526.526 0 0 0-.352.318.556.556 0 0 0 0 .475l.67 1.256-1.993.927a.56.56 0 0 0-.285.653l.385 1.273a8.09 8.09 0 0 1-2.06.787.307.307 0 0 1-.346-.19 7.204 7.204 0 0 1-.168-5.025l3.484-5.583a28.753 28.753 0 0 0 4.014 2.149l-1.011 2.227zm9.803-9.87c.112.246-.123.67-.782.977l-.145.067a4.017 4.017 0 0 0-.335-1.569 1.116 1.116 0 0 1 1.262.525zm-1.016-4.338c-.888.329-1.764.704-2.618 1.117a10.043 10.043 0 0 0-3.846-1.842.558.558 0 1 0-.263 1.083 9.163 9.163 0 0 1 5.103 3.31c.597.752.766 1.758.447 2.663a17.135 17.135 0 0 1-2.071 3.942 2.79 2.79 0 0 1-3.349 1.033 27.65 27.65 0 0 1-5.298-2.836 2.795 2.795 0 0 1-.989-3.349 17.181 17.181 0 0 1 2.133-3.908 2.82 2.82 0 0 1 1.971-1.116c.113.728.357 1.43.72 2.071a1.987 1.987 0 0 0-.558.631 1.523 1.523 0 0 0 0 1.373 2.61 2.61 0 0 0 1.183 1.156l.983.53c.405.227.859.353 1.323.368.1.005.201.005.302 0 .472-.07.884-.354 1.116-.771a2.02 2.02 0 0 0 0-1.959 3.354 3.354 0 0 0-1.384-1.323.561.561 0 0 0-.757.226.558.558 0 0 0 .226.756c.277.138.526.327.731.558a5.06 5.06 0 0 1-1.982-1.72 5.027 5.027 0 0 1 2.717-7.602 5.026 5.026 0 0 1 6.438 5.487 3.909 3.909 0 0 0-2.278.123z"/>
      <path d="M28.346 15.578a.558.558 0 0 0-.726.307l-2.791 6.834a.558.558 0 0 0 .307.732.555.555 0 0 0 .742-.307l2.792-6.834a.559.559 0 0 0-.324-.731zM28.24 20.814c.172.377.467.685.837.871.2.102.422.156.648.156.193-.001.383-.043.558-.123a1.41 1.41 0 0 0 .748-.949c.093-.405.048-.83-.128-1.206a1.479 1.479 0 1 0-2.646 1.252h-.017zm1.077-1.15a.198.198 0 0 1 .084 0 .62.62 0 0 1 .48.391c.071.145.093.31.061.469a.288.288 0 0 1-.134.201.312.312 0 0 1-.24 0 .805.805 0 0 1-.324-.352c-.14-.335-.078-.636.072-.709z"/>
    </symbol>
    <symbol id="icon-logo" viewBox="0 0 93 32">
      <path d="M15.755 9.904h-3.979v-.016H4.565a.774.774 0 0 0 0 1.546h3.504a.774.774 0 0 1 0 1.546H5.493a.774.774 0 0 0-.773.773v.005c0 .427.347.773.773.773h.789c.011 0 .021-.005.032-.005h1.104a.774.774 0 0 1 0 1.546h-.725c-.005 0-.011-.005-.016-.005H2.426a.774.774 0 0 0-.773.773v.005c0 .427.347.773.773.773h3.253a.77.77 0 0 1 .757.768.771.771 0 0 1-.747.768h-1.04a.774.774 0 0 0-.773.773v.005c0 .427.347.773.773.773h2.912a.77.77 0 0 1 .037 1.536H.771a.774.774 0 0 0-.773.773v.005c0 .427.347.773.773.773h7.792-.011 3.216v-3.365h3.979c1.749 0 3.12-.219 4.112-.661.997-.437 1.691-1.051 2.085-1.84.395-.784.592-1.739.592-2.859 0-1.632-.496-2.896-1.493-3.797-.987-.923-2.752-1.371-5.291-1.371zm2.149 6.24c-.208.219-.581.368-1.109.448s-1.323.123-2.384.123h-2.64v-3.024h2.64c1.083 0 1.893.037 2.421.117.528.075.891.219 1.093.432.197.208.299.528.299.949-.005.416-.107.736-.32.955zM81.349 14.784a1.885 1.885 0 0 0-2.325 1.835c0 1.045.843 1.888 1.888 1.888a1.885 1.885 0 0 0 1.835-2.32l6.123-7.525-7.52 6.123zm.043 3.072a1.354 1.354 0 0 1-1.664-.944 1.36 1.36 0 0 1 .539-1.472 1.349 1.349 0 0 0 1.477 2.059c.149-.043.288-.112.405-.197a1.298 1.298 0 0 1-.757.555zM28.517 14.469l-.576-2.832c-.816.037-1.461.059-1.931.059-.448 0-1.093-.016-1.931-.059.101 1.861.155 3.611.155 5.243s-.053 3.371-.155 5.205h4.571a63.423 63.423 0 0 1-.075-3.024l.021-1.264v.021c0-.725.171-1.307.517-1.744.347-.432.88-.651 1.605-.651.587 0 1.339.171 2.256.517l.613-4.288a7.808 7.808 0 0 0-1.072-.075c-2.133 0-3.467.965-4 2.891zM45.035 11.867c-1.045-.507-2.341-.757-3.888-.757-2.304 0-4 .528-5.083 1.579s-1.627 2.416-1.627 4.101c0 1.723.544 3.115 1.627 4.171s2.779 1.584 5.083 1.584c2.331 0 4.075-.528 5.221-1.579 1.152-1.051 1.728-2.448 1.728-4.181 0-1.067-.251-2.027-.747-2.88-.496-.848-1.269-1.531-2.315-2.037zm-1.6 6.832c-.485.469-1.221.709-2.213.709-.987 0-1.712-.235-2.165-.709-.453-.469-.683-1.104-.683-1.893 0-.757.229-1.376.683-1.845.459-.469 1.179-.709 2.165-.709s1.723.24 2.213.72c.485.48.731 1.093.731 1.835 0 .795-.245 1.424-.731 1.893zM69.557 10.459h-5.205a2.51 2.51 0 0 1-.821 1.509c-.459.421-1.019.629-1.685.629v3.387a49.314 49.314 0 0 1 1.877-.117l-.021 3.232c0 1.291.309 2.293.928 3.013s1.675 1.083 3.168 1.083c.613 0 1.109-.011 1.493-.037s.853-.091 1.413-.192a57.461 57.461 0 0 1-.037-1.568c0-.485.027-.965.075-1.435a4.335 4.335 0 0 1-.843.075c-.763 0-1.296-.192-1.6-.581-.299-.389-.448-.928-.448-1.616l.016-2.027c.971.037 2.043.096 3.216.171v-3.387h-3.691c.795-.528 1.515-1.243 2.165-2.139z"/>
      <path d="M88.528 12.96c-.325-.56-.763-1.051-1.275-1.488l-1.84 2.267c.576.789.88 1.728.88 2.832 0 1.467-.453 2.64-1.355 3.515-.907.875-2.272 1.312-4.107 1.312s-3.173-.437-4.021-1.312c-.848-.875-1.269-2.048-1.269-3.515 0-1.413.421-2.555 1.269-3.429s2.187-1.312 4.021-1.312c1.077 0 1.979.165 2.731.469l2.224-1.813c-.053-.032-.101-.064-.16-.091-1.307-.635-2.933-.949-4.869-.949-2.885 0-5.008.656-6.363 1.973-1.36 1.317-2.037 2.416-2.037 4.523 0 2.16.677 4.512 2.037 5.835 1.355 1.323 3.477 1.984 6.363 1.984 2.917 0 5.099-.656 6.539-1.973s2.165-3.061 2.165-5.237c.005-1.317-.309-2.523-.933-3.589zM60.091 16.277c-.725-.448-1.755-.672-3.083-.672-.459 0-1.152.032-2.085.096-.384.037-.683.059-.901.059s-.395-.048-.528-.155a.5.5 0 0 1-.203-.421c0-.229.16-.432.48-.613.32-.176.704-.267 1.147-.267.64 0 1.275.08 1.904.24s1.312.432 2.037.811l2.203-2.219c-.789-.576-1.701-1.003-2.725-1.291a11.266 11.266 0 0 0-3.051-.432c-2.053 0-3.611.309-4.667.928-1.061.619-1.589 1.488-1.589 2.613 0 .971.352 1.669 1.061 2.096s1.632.64 2.768.64c.699 0 1.381-.037 2.048-.117.128-.011.299-.027.507-.037.213-.011.4-.021.565-.021.267 0 .48.059.629.171a.554.554 0 0 1 .229.48c0 .256-.155.464-.469.624s-.757.24-1.328.24c-.597 0-1.312-.117-2.144-.352s-1.536-.565-2.123-.987l-2.011 2.736c.971.613 2.005 1.067 3.109 1.365s2.192.448 3.264.448c1.888 0 3.365-.309 4.437-.928s1.605-1.616 1.605-2.992c0-.917-.363-1.595-1.088-2.043z"/>
      <path d="M78.475 8.939c3.36-.96 6.603-.971 9.168.064L86.422 10c-2.16-1.115-5.029-1.408-7.947-1.061zm14.394 7.264c-.395-3.205-1.909-5.387-4.075-6.651l-1.051 1.296c1.552 1.259 2.48 3.147 2.384 5.765l2.741-.411z"/>
    </symbol>
    <symbol id="icon-Plus" viewBox="0 0 32 32">
      <path stroke-linecap="round" stroke-width="2.909" d="M16 1.455v29.091M30.545 16H1.454"/>
    </symbol>
    <symbol id="icon-telephone" viewBox="0 0 32 32">
      <path stroke-linecap="round" stroke-linejoin="round" stroke-width=".661" d="m14.888 10.772-2.977-3.436c-.343-.396-.972-.394-1.371.005L8.092 9.793c-.729.729-.937 1.813-.516 2.681a25.7 25.7 0 0 0 11.934 11.95c.868.421 1.95.213 2.679-.517l2.471-2.475c.4-.4.401-1.033.002-1.376l-3.45-2.961c-.361-.31-.921-.269-1.283.093l-1.2 1.202a.407.407 0 0 1-.486.078 12.806 12.806 0 0 1-4.717-4.723.41.41 0 0 1 .078-.488l1.197-1.198c.363-.364.402-.927.089-1.289v.001z"/>
    </symbol>
    <symbol id="icon-document" viewBox="0 0 32 32">
      <path d="M8.993 7.422c-.34.117-.598.402-.67.739-.028.127-.034 2.159-.028 7.174l.01 6.995.072.158c.096.206.32.43.526.526.151.069.217.072 1.282.082l1.121.01.014.54c.01.461.021.564.086.698.093.206.316.43.522.526l.158.072h11.172l.158-.072c.206-.096.43-.32.526-.526l.072-.158V9.989l-.072-.158a1.215 1.215 0 0 0-.526-.526c-.151-.069-.217-.072-1.282-.082l-1.121-.01-.014-.54c-.01-.461-.021-.564-.086-.698a1.188 1.188 0 0 0-.523-.526l-.158-.072-5.534-.007c-5.18-.007-5.545-.003-5.706.052zm11.213.739.096.093.034 5.775.089.086a.444.444 0 0 0 .21.107c.103.017.141.003.237-.082l.117-.103.01-2.069.007-2.066 2.131.021.093.096.096.093v13.956l-.096.093-.093.096H12.206l-.093-.096c-.096-.093-.096-.103-.107-.574l-.014-.481h6.287l.134-.1c.23-.172 2.516-2.492 2.554-2.592.055-.137.052-3.475 0-3.575-.062-.12-.175-.196-.306-.196s-.244.076-.306.196c-.028.052-.038.54-.038 1.588v1.516h-.88c-.591 0-.928.014-1.024.041-.189.055-.474.34-.529.529-.027.096-.041.433-.041 1.024v.88L9.181 22.4l-.093-.096-.096-.093v-6.975c0-6.927 0-6.975.069-7.05a.576.576 0 0 1 .137-.107c.038-.014 2.509-.024 5.49-.021l5.424.007.093.096zm-1.021 13.104-.636.636-.01-.588c-.007-.406.003-.605.031-.636.031-.038.172-.048.646-.048h.605l-.636.636z"/>
      <path d="M10.54 10.003a.341.341 0 0 0-.107.547l.089.093h8.25l.089-.093a.335.335 0 0 0 0-.468l-.089-.093-4.084-.007c-2.245-.003-4.111.007-4.149.021zM10.54 11.791a.341.341 0 0 0-.107.547l.089.093h8.25l.089-.093a.334.334 0 0 0 0-.467l-.089-.093-4.084-.007c-2.245-.003-4.111.007-4.149.021zM10.54 13.578a.341.341 0 0 0-.107.547l.089.093h8.25l.089-.093a.334.334 0 0 0 0-.467l-.089-.093-4.084-.007c-2.245-.003-4.111.007-4.149.021zM20.447 15.211c-.165.155-.158.382.021.516.241.179.598-.052.526-.344a.357.357 0 0 0-.33-.254.31.31 0 0 0-.217.082zM10.54 15.366a.341.341 0 0 0-.107.547l.089.093 3.847.017.113-.1c.093-.082.113-.124.113-.244s-.021-.162-.113-.244l-.11-.1-1.884.003c-1.035 0-1.911.014-1.949.028zM15.706 15.393a.328.328 0 0 0 .014.574c.217.131.492-.034.492-.292 0-.251-.296-.416-.505-.282zM11.097 17.157a1.302 1.302 0 0 0-.839.705c-.079.175-.096.251-.093.498 0 .247.014.327.096.502a1.3 1.3 0 0 0 .622.622c.175.079.251.096.498.096s.323-.017.498-.096c.268-.124.502-.358.622-.622.082-.179.096-.254.096-.502s-.014-.323-.096-.502a1.226 1.226 0 0 0-1.042-.718c-.127-.007-.292 0-.364.017zm.605.766a.543.543 0 0 1-.1.935c-.368.172-.808-.148-.76-.553.045-.416.533-.632.859-.382zM13.424 18.051c-.11.045-.22.203-.22.313 0 .062.038.141.1.21l.1.113h2.619l.093-.096a.32.32 0 0 0 0-.461l-.093-.096-1.265-.007c-.694-.003-1.296.007-1.334.024z"/>
    </symbol>
    <symbol id="icon-card" viewBox="0 0 32 32">
      <path d="M8.022 9.782h16.276c.431 0 .841.171 1.145.477.304.304.477.714.477 1.145v9.609c0 .431-.171.841-.477 1.145a1.618 1.618 0 0 1-1.145.477H8.022a1.61 1.61 0 0 1-1.145-.477 1.618 1.618 0 0 1-.477-1.147v-9.609c0-.429.171-.839.477-1.145a1.618 1.618 0 0 1 1.145-.477v.002zm16.278.901H8.022a.718.718 0 0 0-.719.719v9.609c0 .192.076.372.211.508s.317.212.508.212h16.276c.192 0 .372-.076.508-.212s.211-.317.211-.508v-9.609a.718.718 0 0 0-.719-.719h.002z"/>
      <path d="M26.24 12.979V14.4H6.72v-1.6h19.52v.179zM9.762 16.807a1.796 1.796 0 0 1 .673.131 2.098 2.098 0 0 0 0 3.344 1.796 1.796 0 0 1-.673.131 1.799 1.799 0 0 1-1.801-1.801 1.799 1.799 0 0 1 1.801-1.801v-.003z"/>
      <path d="M10.437 17.334c.325-.325.776-.527 1.274-.527a1.799 1.799 0 0 1 1.801 1.801 1.799 1.799 0 0 1-1.801 1.801 1.799 1.799 0 0 1-1.801-1.801c0-.498.202-.948.527-1.274zM15.166 18.159h1.924c.234 0 .425.202.425.451s-.19.451-.425.451h-1.924c-.234 0-.425-.202-.425-.451s.19-.451.425-.451zm3.351 0h1.924c.234 0 .425.202.425.451s-.19.451-.425.451h-1.924c-.234 0-.425-.202-.425-.451s.19-.451.425-.451zm3.351 0h1.924c.234 0 .425.202.425.451s-.19.451-.425.451h-1.924c-.234 0-.425-.202-.425-.451s.19-.451.425-.451z"/>
    </symbol>
    <symbol id="icon-document2" viewBox="0 0 32 32">
      <path d="M18.878 7.04h-8.023c-.503 0-.985.202-1.34.56s-.555.846-.555 1.353v13.774c0 1.056.848 1.913 1.895 1.913h10.61c.503 0 .985-.202 1.34-.56s.555-.846.555-1.353V11.565c0-.304-.12-.596-.333-.812l-3.345-3.378a1.131 1.131 0 0 0-.804-.336zm3.724 4.974v10.713c0 .305-.12.596-.333.812s-.502.336-.804.336h-10.61a1.143 1.143 0 0 1-1.137-1.148V8.953c0-.304.12-.596.333-.812s.502-.336.804-.336h7.579a.38.38 0 0 1 .379.383v1.53c0 .507.2.994.555 1.353s.838.56 1.34.56h1.516c.1 0 .197.04.268.112s.111.169.111.27zM19.57 8.346v1.372c0 .305.12.597.333.812s.502.336.804.336h1.359l-2.496-2.52z"/>
      <path d="m11.345 13.815.758.765c.148.15.388.15.536 0l1.516-1.53c.148-.149.148-.392 0-.541s-.388-.149-.536 0l-1.248 1.26-.49-.495c-.148-.149-.388-.149-.536 0s-.148.392 0 .541zM11.345 17.641l.758.765a.377.377 0 0 0 .536 0l1.516-1.53c.148-.149.148-.392 0-.541s-.388-.149-.536 0l-1.248 1.26-.49-.495c-.148-.149-.388-.149-.536 0s-.148.392 0 .541zM11.345 21.467l.758.765c.148.15.388.15.536 0l1.516-1.53c.148-.149.148-.392 0-.541s-.388-.149-.536 0l-1.248 1.26-.49-.495c-.148-.149-.388-.149-.536 0s-.148.392 0 .541zM15.402 13.927h5.305c.209 0 .379-.171.379-.383s-.17-.383-.379-.383h-5.305c-.209 0-.379.171-.379.383s.17.383.379.383zM15.402 17.753h5.305c.209 0 .379-.171.379-.383s-.17-.383-.379-.383h-5.305c-.209 0-.379.171-.379.383s.17.383.379.383zM15.402 21.579h5.305c.209 0 .379-.171.379-.383s-.17-.383-.379-.383h-5.305c-.209 0-.379.171-.379.383s.17.383.379.383z"/>
    </symbol>
    <symbol id="icon-deal" viewBox="0 0 32 32">
      <path d="M217.865 132.207h-7.704c-1.235-17.555-3.115-36.922-5.555-40.723-3.525-5.503-11.743-8.678-21.263-12.355-2.365-.915-4.81-1.857-7.228-2.858-5.751-2.408-9.198-3.978-11.155-4.92l-.06-6.122c1.598-1.979 3.748-5.577 4.987-11.533.293-.16.583-.343.865-.545 3.135-2.227 5.164-6.64 5.312-9.548.053-.828.413-8.009-3.204-11.567.485-4.232.71-7.385.503-9.562C172.301 11.491 161.718.127 145.838.127c-15.87 0-26.46 11.362-27.53 22.352-.208 2.198.017 5.347.502 9.56-3.635 3.57-3.258 10.745-3.207 11.55.192 3.004 2.248 7.413 5.368 9.6.263.183.535.352.81.503 1.233 5.958 3.385 9.56 4.988 11.539l-.062 6.118c-1.964.943-5.407 2.512-11.143 4.912-11.452 4.738-20.498 8.48-24.823 15.218-.213.332-.495.772-.695 2.158-14.945.2-42.192 3.735-43.375 3.89a4.778 4.778 0 1 0 1.237 9.477c.282-.038 27.529-3.572 41.979-3.808.213 5.742.808 14.43 2.076 27.705H72.89c-2.132-8.2-9.573-14.284-18.431-14.284-10.508 0-19.062 8.552-19.062 19.062s8.552 19.062 19.062 19.062c8.857 0 16.3-6.084 18.431-14.284h20.027c1.042 10.124 2.404 22.395 4.165 37.263H40.015a4.78 4.78 0 0 0-4.778 4.778 4.78 4.78 0 0 0 4.778 4.778h24.163c-.002.05-.017.1-.017.153 0 6.073-4.941 11.015-11.015 11.015H38.809c-6.076 0-11.016-4.941-11.016-11.015v-57.498c0-1.883.143-3.94.432-6.282l.992-6.177a4.776 4.776 0 0 0-3.958-5.477c-2.608-.432-5.058 1.352-5.477 3.958l-.363 2.265-1.607.002c-4.623 0-8.385-3.76-8.385-8.387 0-4.623 3.76-8.385 8.385-8.385h12.785a4.776 4.776 0 0 0 4.465-3.08c7.22-18.998 17.782-34.088 23.453-42.193.767-1.097 1.437-2.048 1.979-2.85 8.53-5.578 24.132-8.895 42.021-8.895a4.78 4.78 0 0 0 4.778-4.778 4.78 4.78 0 0 0-4.778-4.778c-20.588 0-38.165 4.048-48.218 11.108a4.797 4.797 0 0 0-1.245 1.28c-.58.882-1.388 2.035-2.368 3.437-5.206 7.44-15.75 22.508-23.347 41.195h-9.525C7.917 91.894-.13 99.94-.13 109.836s8.047 17.943 17.942 17.943h.47c-.032.737-.048 1.45-.048 2.15v57.498c0 11.345 9.23 20.572 20.575 20.572h14.337c11.345 0 20.572-9.228 20.572-20.572 0-.053-.015-.103-.017-.153h24.524c1.208 10 2.58 21.04 4.137 33.271a4.785 4.785 0 0 0 5.35 4.139 4.783 4.783 0 0 0 4.137-5.345c-5.503-43.209-13.67-113.83-12.668-123.256 3.043-3.963 10.953-7.233 20.062-11 11.358-4.755 14.383-6.52 14.687-6.707a4.773 4.773 0 0 0 2.31-4.04l.112-10.937c.015-1.5-.538-2.807-1.725-3.724-.028-.028-2.913-2.707-3.912-10.503a4.776 4.776 0 0 0-4.588-4.171c-.435-.562-.918-1.532-.982-2.043-.07-1.035.07-2.517.292-3.503a4.737 4.737 0 0 0 1.781-1.037 4.767 4.767 0 0 0 1.5-4.122c-.332-2.592-1.107-8.658-.893-10.91.662-6.737 7.579-13.708 18.02-13.708 10.446 0 17.362 6.97 18.008 13.7.213 2.225-.535 8.102-.893 10.924a4.787 4.787 0 0 0 3.278 5.155c.222.99.36 2.48.292 3.542-.065.507-.541 1.45-.97 2.005a4.791 4.791 0 0 0-2.468.773 4.802 4.802 0 0 0-2.127 3.39c-.992 7.68-3.795 10.398-3.78 10.4a4.778 4.778 0 0 0-1.853 3.828l.108 10.937a4.787 4.787 0 0 0 2.305 4.044c.308.183 3.328 1.95 14.707 6.716 2.512 1.037 5.025 2.01 7.457 2.948 6.844 2.643 14.585 5.633 16.577 8.47 1.343 3.312 3.108 21.234 4.397 40.17-.007.103-.032.198-.032.301 0 .358.048.705.122 1.042.204 3.059.395 6.132.568 9.168l-39.075 41.55c-.248.263-.452.55-.63.848h-23.527v-47.834h28.08a4.78 4.78 0 0 0 4.778-4.778 4.78 4.78 0 0 0-4.778-4.778h-32.858a4.78 4.78 0 0 0-4.778 4.778v57.391a4.78 4.78 0 0 0 4.778 4.778h54.46l.002 20.793a4.781 4.781 0 0 0 4.778 4.779 4.78 4.78 0 0 0 4.778-4.779v-20.79h20.322a4.78 4.78 0 0 0 4.778-4.778V136.98a4.778 4.778 0 0 0-4.778-4.778h-.003zM54.46 145.184c-5.24 0-9.505-4.263-9.505-9.505s4.263-9.505 9.505-9.505c5.242 0 9.505 4.263 9.505 9.505s-4.265 9.505-9.505 9.505zM213.09 189.6h-38.308l35.123-37.35a4.775 4.775 0 0 0 1.29-3.537c-.12-2.158-.253-4.499-.404-6.945h2.298V189.6zM24.443 17.39h-.604c-.097-1.376-.244-2.893-.435-3.191-.276-.431-.92-.68-1.666-.968-.185-.072-.377-.145-.566-.224a18.773 18.773 0 0 1-.874-.386l-.005-.48c.125-.155.294-.437.391-.904a.703.703 0 0 0 .068-.043c.246-.175.405-.52.416-.748.004-.065.032-.628-.251-.906.038-.332.056-.579.039-.749-.083-.861-.913-1.751-2.157-1.751s-2.073.89-2.157 1.752c-.016.172.001.419.039.749-.285.28-.255.842-.251.905.015.235.176.581.421.752.021.014.042.028.064.039.097.467.265.749.391.904l-.005.479c-.154.074-.424.197-.873.385-.897.371-1.606.665-1.945 1.193a.35.35 0 0 0-.054.169c-1.171.016-3.306.293-3.399.305a.375.375 0 0 0 .097.743c.022-.003 2.157-.28 3.29-.298.017.45.063 1.131.163 2.171h-1.495a1.494 1.494 0 0 0-1.444-1.119c-.823 0-1.494.67-1.494 1.494s.67 1.494 1.494 1.494c.694 0 1.277-.477 1.444-1.119h1.569c.082.793.188 1.755.326 2.92h-4.472a.374.374 0 0 0 0 .748h1.893l-.001.012a.864.864 0 0 1-.863.863h-1.123a.864.864 0 0 1-.863-.863v-4.506c0-.148.011-.309.034-.492l.078-.484a.374.374 0 0 0-.739-.119l-.028.177H8.77a.658.658 0 0 1 0-1.314h1.002a.375.375 0 0 0 .35-.241c.566-1.489 1.393-2.671 1.838-3.306l.155-.223c.668-.437 1.891-.697 3.293-.697a.374.374 0 0 0 0-.748c-1.613 0-2.991.317-3.778.87a.373.373 0 0 0-.098.1c-.045.069-.109.159-.186.269-.408.583-1.234 1.764-1.829 3.228h-.746c-.775 0-1.406.631-1.406 1.406s.631 1.406 1.406 1.406h.037c-.002.058-.004.114-.004.168v4.506c0 .889.723 1.612 1.612 1.612h1.123c.889 0 1.612-.723 1.612-1.612l-.001-.012h1.922c.095.784.202 1.649.324 2.607a.375.375 0 0 0 .743-.095c-.431-3.386-1.071-8.92-.993-9.659.238-.311.858-.567 1.572-.862.89-.373 1.127-.511 1.151-.526a.374.374 0 0 0 .181-.317l.009-.857a.35.35 0 0 0-.135-.292c-.002-.002-.228-.212-.307-.823a.376.376 0 0 0-.359-.327.433.433 0 0 1-.077-.16 1.149 1.149 0 0 1 .023-.275.377.377 0 0 0 .258-.404c-.026-.203-.087-.678-.07-.855.052-.528.594-1.074 1.412-1.074s1.36.546 1.411 1.074c.017.174-.042.635-.07.856a.378.378 0 0 0 .257.404c.017.078.028.194.023.278a.412.412 0 0 1-.076.157.373.373 0 0 0-.36.327c-.078.602-.297.815-.296.815a.375.375 0 0 0-.145.3l.008.857c.001.13.07.25.181.317.024.014.261.153 1.152.526.197.081.394.158.584.231.536.207 1.143.441 1.299.664.105.259.244 1.664.345 3.148l-.002.024c0 .028.004.055.01.082l.045.718-3.062 3.256a.397.397 0 0 0-.049.067h-1.844V18.14h2.2a.374.374 0 0 0 0-.748H17.84a.374.374 0 0 0-.374.374v4.497c0 .207.168.374.374.374h4.268v1.629a.374.374 0 0 0 .748 0v-1.629h1.592a.374.374 0 0 0 .374-.374v-4.497a.374.374 0 0 0-.374-.374zm-12.805 1.017a.746.746 0 1 1 .001-1.491.746.746 0 0 1-.001 1.491zm12.431 3.481h-3.002l2.752-2.927a.374.374 0 0 0 .101-.277l-.032-.544h.18v3.748z"/>
      <path d="M18.957 16.176v-1.68a.374.374 0 0 0-.748 0v1.68a.374.374 0 0 0 .748 0z"/>
    </symbol>
    <symbol id="icon-speedIcon" viewBox="0 0 42 32">
      <path d="M20.8 1.6A14.403 14.403 0 0 0 6.4 16a14.403 14.403 0 0 0 14.4 14.4A14.403 14.403 0 0 0 33.271 8.8 14.397 14.397 0 0 0 20.8 1.6zm0 28.098A13.698 13.698 0 1 1 34.498 16 13.713 13.713 0 0 1 20.8 29.698z"/>
      <path d="M20.8 3.119A12.879 12.879 0 0 0 7.919 16 12.879 12.879 0 0 0 20.8 28.881a12.879 12.879 0 0 0 9.104-21.985A12.896 12.896 0 0 0 20.8 3.119zm0 25.06A12.18 12.18 0 1 1 32.979 16 12.192 12.192 0 0 1 20.8 28.178z"/>
      <path d="m27.539 11.126.594-.619a.36.36 0 0 0-.44-.54l-.72.45a8.325 8.325 0 0 0-14.499 6.142 8.324 8.324 0 0 0 3.112 5.921v1.746a1.234 1.234 0 0 0 1.253 1.238h8.089a1.237 1.237 0 0 0 1.235-1.231v-1.872a8.308 8.308 0 0 0 1.375-11.235zM25.48 24.233a.531.531 0 0 1-.532.53h-8.107a.53.53 0 0 1-.529-.529v-2.415a.53.53 0 0 1 .529-.529h8.089a.528.528 0 0 1 .551.529v2.415zm.644-2.768a1.23 1.23 0 0 0-1.178-.879h-8.107a1.236 1.236 0 0 0-1.209.994A7.56 7.56 0 0 1 13.178 16a7.62 7.62 0 0 1 13.187-5.205l-5.274 3.283a1.949 1.949 0 0 0-1.811 3.148c.331.409.814.668 1.339.716.525.047 1.046-.12 1.446-.463s.643-.834.674-1.361l4.32-4.478a7.603 7.603 0 0 1-.939 9.824h.003zm-4.219-7.067 3.773-2.358-3.078 3.215a1.942 1.942 0 0 0-.695-.857zM22.042 16a1.242 1.242 0 1 1-2.484-.001 1.242 1.242 0 0 1 2.484.001zM20.739 6.64a.357.357 0 0 0 .36-.36V4.61a.36.36 0 1 0-.72 0v1.67a.356.356 0 0 0 .359.36zM17.009 7.083a.36.36 0 0 0 .328.223.322.322 0 0 0 .126-.025.36.36 0 0 0 .201-.454l-.608-1.57a.36.36 0 0 0-.655.252l.608 1.573zM14.144 9.038a.36.36 0 0 0 .497.022.36.36 0 0 0 .04-.497l-1.152-1.242a.361.361 0 0 0-.557-.092.359.359 0 0 0 .038.563l1.134 1.246zM10.673 11.144l1.505.752a.362.362 0 0 0 .548-.12.36.36 0 0 0-.234-.51l-1.508-.749a.359.359 0 0 0-.31.626zM11.411 15.28a.36.36 0 1 0 .028-.72l-1.677-.155a.36.36 0 0 0-.065.698l1.678.158.036.018zM12.095 18.275a.36.36 0 0 0-.436-.241l-1.62.461a.36.36 0 0 0-.241.432.36.36 0 0 0 .339.256.316.316 0 0 0 .097 0l1.62-.461a.36.36 0 0 0 .241-.446zM13.114 21.181l-1.343 1.015a.36.36 0 0 0-.068.493.361.361 0 0 0 .49.069l1.343-.997a.36.36 0 0 0-.421-.562v-.018zM28.587 21.065a.36.36 0 0 0-.493.068.36.36 0 0 0 .072.493l1.343 1.012a.34.34 0 0 0 .212.072.359.359 0 0 0 .212-.63l-1.346-1.015zM31.6 18.354l-1.62-.461a.36.36 0 0 0-.18.677l1.62.457a.316.316 0 0 0 .097 0 .36.36 0 0 0 .338-.256.36.36 0 0 0-.256-.418zM29.84 14.812a.36.36 0 0 0 .36.317h.032l1.678-.158a.36.36 0 0 0 .246-.658.358.358 0 0 0-.31-.04l-1.685.155a.36.36 0 0 0-.32.385zM28.9 11.608a.36.36 0 0 0 .472.158l1.508-.752c.105-.027.193-.1.239-.199s.044-.213-.005-.311a.36.36 0 0 0-.548-.12l-1.505.752a.36.36 0 0 0-.162.472zM27.103 9.056a.358.358 0 0 0 .259-.115l1.134-1.246a.36.36 0 0 0-.518-.475l-1.134 1.246a.36.36 0 0 0 .022.497c.065.059.15.092.238.094zM24.015 7.231a.358.358 0 0 0 .453-.201l.608-1.57a.359.359 0 0 0-.202-.457.361.361 0 0 0-.454.201l-.608 1.573a.36.36 0 0 0 .202.454z"/>
    </symbol>
    <symbol id="15" viewBox="0 0 37 32">
      <path d="M10.496 0h-10.496v5.729h4.286v25.6h6.21v-31.329z"></path>
      <path d="M26.028 9.98c-1.356 0-2.668 0.224-3.849 0.582l0.262-5.013h12.595v-5.55h-17.887l-0.918 15.082 5.117 3.088c0.875-1.611 2.799-2.685 4.723-2.685 2.93 0 5.248 2.282 5.248 5.236 0 2.999-2.362 5.281-5.379 5.281-2.843 0-4.986-2.059-5.248-4.834h-6.035c0.219 6.31 4.767 10.831 11.24 10.831 6.648 0 11.415-4.654 11.415-11.278 0-6.579-4.723-10.741-11.283-10.741z"></path>
    </symbol>
    <symbol id="close" viewBox="0 0 30 32">
      <path stroke-linejoin="miter" stroke-linecap="round" stroke-miterlimit="4" stroke-width="3.5556" d="M28.444 3.429l-25.142 25.142"></path>
      <path stroke-linejoin="miter" stroke-linecap="round" stroke-miterlimit="4" stroke-width="3.5556" d="M28.444 28.57l-25.142-25.142"></path>
    </symbol>
    <symbol id="open" viewBox="0 0 32 32">
      <path stroke-linejoin="miter" stroke-linecap="round" stroke-miterlimit="4" stroke-width="2.9091" d="M16 1.455v29.091"></path>
      <path stroke-linejoin="miter" stroke-linecap="round" stroke-miterlimit="4" stroke-width="2.9091" d="M30.545 16h-29.091"></path>
    </symbol>
    <symbol id="arrow-left" viewBox="0 0 36 32">
      <path d="M34.133 18.133c1.178 0 2.133-0.955 2.133-2.133s-0.955-2.133-2.133-2.133v4.267zM0.625 14.492c-0.833 0.833-0.833 2.184 0 3.017l13.576 13.576c0.833 0.833 2.184 0.833 3.017 0s0.833-2.184 0-3.017l-12.068-12.068 12.068-12.068c0.833-0.833 0.833-2.184 0-3.017s-2.184-0.833-3.017 0l-13.576 13.576zM34.133 13.867h-32v4.267h32v-4.267z"></path>
    </symbol>
    <symbol id="arrow-right" viewBox="0 0 36 32">
      <path d="M2.133 13.867c-1.178 0-2.133 0.955-2.133 2.133s0.955 2.133 2.133 2.133v-4.267zM35.642 17.508c0.833-0.833 0.833-2.184 0-3.017l-13.576-13.576c-0.833-0.833-2.184-0.833-3.017 0s-0.833 2.184 0 3.017l12.068 12.068-12.068 12.068c-0.833 0.833-0.833 2.184 0 3.017s2.184 0.833 3.017 0l13.576-13.576zM2.133 18.133h32v-4.267h-32v4.267z"></path>
    </symbol>
  </defs>
</svg>
